<?xml version="1.0" encoding="UTF-8"?>
<svg id="Layer_2" xmlns="http://www.w3.org/2000/svg" version="1.1" viewBox="0 0 465.8 465.8">
  <!-- Generator: Adobe Illustrator 30.0.0, SVG Export Plug-In . SVG Version: 2.1.1 Build 21)  -->
  <defs>
    <style>
      .st0 {
        fill: #828282;
      }
    </style>
  </defs>
  <path class="st0" d="M258.6,234.1c2.1-4.8,3.1-12.6,3.1-23.3s-2.3-24-7-29.3c-4.6-5.3-12.4-7.9-23.1-7.9h-10.4v73.5h10.2c8.7,0,14.9-1,18.5-2.9s6.5-5.3,8.6-10.1h.1Z"/>
  <path class="st0" d="M96.9,170.5h-11.8v30h10.2c8,0,13.6-1.4,16.9-4.2,3.2-2.8,4.9-6.3,4.9-10.7s-1.4-7.8-4.2-10.7-8.1-4.4-15.9-4.4h0Z"/>
  <g>
    <path class="st0" d="M377.8,117.5c-14.6,0-26.5-11.9-26.5-26.5V0H52C23.3,0,0,23.3,0,52v361.8C0,442.5,23.3,465.8,52,465.8h361.8c28.7,0,52-23.3,52-52V117.5h-88ZM179.7,143.1h61.7c12.2,0,22,1.6,29.5,4.9s13.7,8,18.6,14.2,8.4,13.4,10.6,21.6,3.3,16.9,3.3,26.1c0,14.4-1.6,25.5-4.9,33.4-3.3,7.9-7.8,14.6-13.6,19.9-5.8,5.4-12,8.9-18.7,10.7-9.1,2.5-17.4,3.7-24.8,3.7h-61.7v-134.5ZM145.2,216.2c-8.1,7.6-20.6,11.5-37.4,11.5h-22.8v49.9h-41.7v-134.5h69.1c15,0,26.3,3.6,33.8,10.7,7.5,7.1,11.2,17.3,11.2,30.6s-4.1,24.2-12.2,31.8ZM232.9,425.7l-79.2-63.8h54.1v-61.4h50.1v61.4h54.1l-79.2,63.8ZM428.2,171.9h0c0,0-61,0-61,0v23.5h52.1v27.1h-52.1v54.9h-41.7v-134.5h102.7v28.9Z"/>
    <polygon class="st0" points="366.1 0 366.1 0 366.1 0 366.1 0"/>
  </g>
  <path class="st0" d="M385.7,95.4c-6.7,0-12.3-5.6-12.3-12.3V11.2l86.6,84.2h-74.2Z"/>
</svg>