<?xml version="1.0" encoding="UTF-8"?>
<svg id="Layer_2" data-name="Layer 2" xmlns="http://www.w3.org/2000/svg" viewBox="0 0 276.3 310.3">
  <defs>
    <style>
      .cls-1 {
        fill: #ff9e00;
      }

      .cls-2 {
        fill: #757575;
      }
    </style>
  </defs>
  <g id="Layer_1-2" data-name="Layer 1">
    <g>
      <path class="cls-1" d="M276.26,91.55c0-9.98-5.38-19.29-14.03-24.28L152.12,3.74c-8.65-4.99-19.39-4.99-28.04,0L14.01,67.34C5.37,72.33,0,81.64,0,91.63l.04,127.12c0,9.99,5.38,19.29,14.03,24.28l110.11,63.53c4.33,2.5,9.17,3.74,14.02,3.74,4.85,0,9.7-1.25,14.02-3.75l110.07-63.59c8.65-5,14.02-14.3,14.01-24.29l-.04-127.12ZM254.73,229.89l-110.07,63.59c-3.99,2.31-8.95,2.3-12.94,0l-110.11-63.53c-3.99-2.3-6.47-6.59-6.47-11.2l-.04-127.12c0-4.61,2.48-8.91,6.47-11.21l110.07-63.59c2-1.15,4.23-1.73,6.47-1.73,2.24,0,4.47.57,6.47,1.73l110.11,63.53c3.99,2.31,6.47,6.6,6.48,11.21l.04,127.12c0,4.61-2.48,8.9-6.47,11.21Z"/>
      <path class="cls-1" d="M181.52,191.02c-3.88,28.13-19.47,58.76-50.09,64.14-4.77.63-4.3-3.17-2.5-4.78,7.94-9.31,15.89-24.31,13.91-32.62-.25-1.05-1.04-2.21-1.56-1.26-9.6,15.61-45.88,32.85-53.55,31.46-4.6-1.1-5.12-5.37,2.23-11.21,21.16-18.46,19.78-33.16,19.08-42.5,0-.09-3.31,0-6.53-2.18-6.69-4.7-12.73-10.58-19.08-16.4-11.02-10.99-20.66-17.1-15.24-29.96.29-.7-.23-1.46-.98-1.44-10.52.22-21.63-2.45-29.96-9.09-2.1-1.69-5.71-5.18-2.01-7.03.37-.71,1.33.05,1.67-.67,9.39.24,20.15-.14,29.39-2,.04,0,.08-.02.11-.03,8.54-2.43,14.94-8.95,22.03-13.7,14.95-10.05,33.09-13.12,50.04-6.75,5.97,2.03,16.42,2.08,23.6-.06,1.2-.36,3.86-1.28,4.9-1.57,21.04-5.98,52.21,26.81,56.1,46.74.04.2.02.4-.05.59-5.35,14.4-20.68,25.1-31.85,35.35-2.06,2.25-5.64,4.12-8.64,4.09-.52,0-.96.37-1.03.89ZM153.03,142.17s4.11-11.48,5.87-16.86c.97-3.02-5.14-3.65-6.19-2.51-.38.1-22.59,30.62-22.59,30.62-.93,1.11-.75,2.47.84,2.51h12.05c.95,0,1.22.35,1.08,1.13l-6.85,20.08c-.83,2.37,1.51,2.77,2.68,1.15,0,0,16.2-22.18,25.01-32.57.74-1.08.28-2.2-2.18-2.18l-9.11-.14c-.89-.04-.92-.47-.61-1.25ZM105.19,135.85c-4.73,3-11.01,10.35-13.55,15.23-2.56,2.67,17.12,22.63,18.07,24.93.86.8,2.43.26,2.01-1.17-.72-1.76-2.16-43.27-6.53-38.99ZM189.18,135.85c-.58-.32-.77.42-.84,1.17-1.01,8.11-4.68,30.12-4.68,30.12-.08.77,1.07,1.24,1.67.33,0,0,10.29-15.37,12.59-21.4.09-.23.09-.48,0-.71-1.41-4.01-5.36-7.26-8.75-9.51Z"/>
      <circle class="cls-1" cx="149.63" cy="73.26" r="25.11"/>
      <path class="cls-2" d="M88.62,205.46c-.22.58-1.32.33-1.84.33-9.36.06-18.75.07-28.11,0-.52,0-1.62.24-1.84-.33h31.79Z"/>
      <rect class="cls-1" x="26.32" y="157.27" width="26.88" height="6.36" rx="3.18" ry="3.18"/>
      <rect class="cls-1" x="39.76" y="183.21" width="35.14" height="6.36" rx="3.18" ry="3.18"/>
      <rect class="cls-1" x="54.22" y="205.48" width="36.74" height="6.36" rx="3.18" ry="3.18"/>
    </g>
  </g>
</svg>