<?xml version="1.0" encoding="UTF-8"?>
<svg id="Layer_2" data-name="Layer 2" xmlns="http://www.w3.org/2000/svg" viewBox="0 0 325.4 306.48">
  <defs>
    <style>
      .cls-1 {
        fill: #ff9e00;
      }
    </style>
  </defs>
  <g id="Layer_1-2" data-name="Layer 1">
    <g>
      <circle class="cls-1" cx="216.65" cy="37.16" r="37.16" transform="translate(-3.16 35.18) rotate(-9.22)"/>
      <path class="cls-1" d="M325.37,150.9c-5.76-29.49-51.89-78.02-83.03-69.17-1.54.44-5.49,1.8-7.26,2.33-10.62,3.17-26.08,3.1-34.93.09-25.09-9.42-51.94-4.89-74.06,9.99-2.94,1.98-5.81,4.16-8.68,6.35h0c-24.54,14.3-88.4,14.35-98.94,13.82,0,0-9.87-1.7-14.77-1.6-3.6.07-5.06,4.62-2.19,6.79,5.42,4.1,11.1,7.85,16.99,11.23,14.94,8.57,31.24,14.76,48.09,18.3,4.4.92,16.81,3.85,27.27,4.07-1.01,13.53,11.17,22.08,24.79,35.65,9.4,8.62,18.34,17.32,28.23,24.27,4.76,3.21,9.65,3.08,9.66,3.22,1.05,13.82,3.09,35.57-28.23,62.9-10.88,8.65-10.11,14.96-3.3,16.6,11.35,2.06,65.05-23.46,79.26-46.57.77-1.4,1.94.32,2.31,1.87,2.93,12.29-8.84,34.49-20.59,48.28-2.66,2.38-3.37,8.01,3.7,7.08,45.33-7.96,68.4-53.29,74.14-94.93.11-.76.75-1.32,1.52-1.31,4.44.05,9.74-2.72,12.78-6.05,16.53-15.17,39.23-31.02,47.15-52.33.1-.28.13-.58.07-.87ZM157.55,189.24c-1.41-3.4-30.54-32.94-26.75-36.9,3.76-7.22,13.06-18.09,20.06-22.54,6.46-6.34,8.59,55.09,9.66,57.7.63,2.12-1.7,2.92-2.97,1.73ZM239.27,144.41c-13.04,15.38-37.02,48.21-37.02,48.21-1.74,2.39-5.21,1.79-3.97-1.71l10.15-29.72c.21-1.15-.19-1.66-1.6-1.67h-17.83c-2.35-.06-2.61-2.07-1.24-3.71,0,0,32.88-45.17,33.43-45.32,1.55-1.7,10.6-.76,9.16,3.71-2.59,7.96-8.68,24.95-8.68,24.95-.47,1.15-.42,1.78.9,1.85l13.48.2c3.63-.03,4.31,1.63,3.22,3.22ZM288.12,144.92c-3.41,8.93-18.63,31.68-18.63,31.68-.89,1.33-2.6.64-2.48-.49,0,0,5.44-32.57,6.93-44.58.1-1.12.38-2.21,1.24-1.73,5.01,3.33,10.87,8.14,12.95,14.08.12.34.12.71-.01,1.05Z"/>
    </g>
  </g>
</svg>